<?xml version="1.0" encoding="utf-8"?><svg viewBox="0 0 180 110" xmlns="http://www.w3.org/2000/svg" xmlns:xlink="http://www.w3.org/1999/xlink"><style>:root>svg{display:none}:root>svg:target{display:block}</style><svg viewBox="0 0 180 110" id="Exclude" xmlns="http://www.w3.org/2000/svg"><path fill-rule="evenodd" clip-rule="evenodd" d="M180 0H0v40c0-11.046 8.954-20 20-20h140c11.046 0 20-8.954 20-20zm-20 90H20C8.954 90 0 81.046 0 70v40h180c0-11.046-8.954-20-20-20z"/></svg><svg viewBox="0 0 10 10" id="Loop" xmlns="http://www.w3.org/2000/svg"><path d="M1 5.792l.73-.172-.73.172zm0-2.426l.73.171-.73-.17zm6.877 0l.73-.171-.73.171zm0 2.426l-.73-.172.73.172zM5.651 8.017l-.171-.73.171.73zm-2.425 0l.171-.73-.171.73zm0-6.877L3.055.41l.17.73zm2.425 0l.171-.73-.17.73zM8.33 9.53a.75.75 0 001.06-1.06L8.33 9.53zm-6.6-3.91a4.56 4.56 0 010-2.083L.27 3.196a6.06 6.06 0 000 2.768l1.46-.343zm5.417-2.083a4.56 4.56 0 010 2.083l1.46.343a6.06 6.06 0 000-2.768l-1.46.343zM5.48 7.287a4.56 4.56 0 01-2.083 0l-.342 1.46a6.06 6.06 0 002.767 0l-.342-1.46zM3.397 1.87a4.56 4.56 0 012.083 0L5.822.41a6.06 6.06 0 00-2.767 0l.342 1.46zm0 5.417A2.237 2.237 0 011.73 5.62l-1.46.343a3.737 3.737 0 002.785 2.785l.342-1.46zm2.425 1.46a3.737 3.737 0 002.785-2.784l-1.46-.343A2.237 2.237 0 015.48 7.287l.342 1.46zM5.48 1.87c.827.195 1.473.84 1.667 1.667l1.46-.342A3.737 3.737 0 005.822.41L5.48 1.87zM3.055.41A3.737 3.737 0 00.27 3.195l1.46.343A2.237 2.237 0 013.397 1.87L3.055.41zM6.7 7.902L8.33 9.53l1.06-1.06-1.629-1.63-1.06 1.062z" fill-opacity=".63"/></svg><svg viewBox="0 0 24 24" id="Sort" xmlns="http://www.w3.org/2000/svg"><path d="M6 12h8M6 7h12m-8 10H6"/></svg><svg viewBox="0 0 8 6" id="arrow-select-down" xmlns="http://www.w3.org/2000/svg"><g filter="url(#da)"><path d="M4 6L0 0h8L4 6z"/></g><defs><filter id="da" x="0" y="0" width="8" height="10" filterUnits="userSpaceOnUse" color-interpolation-filters="sRGB"><feFlood flood-opacity="0" result="BackgroundImageFix"/><feBlend in="SourceGraphic" in2="BackgroundImageFix" result="shape"/><feColorMatrix in="SourceAlpha" values="0 0 0 0 0 0 0 0 0 0 0 0 0 0 0 0 0 0 127 0" result="hardAlpha"/><feOffset dy="4"/><feGaussianBlur stdDeviation="2"/><feComposite in2="hardAlpha" operator="arithmetic" k2="-1" k3="1"/><feColorMatrix values="0 0 0 0 0 0 0 0 0 0 0 0 0 0 0 0 0 0 0.25 0"/><feBlend in2="shape" result="effect1_innerShadow_134_981"/></filter></defs></svg><svg viewBox="0 0 20 20" id="close" xmlns="http://www.w3.org/2000/svg"><path d="M2.293 16.293a1 1 0 101.414 1.414L10 11.414l6.293 6.293a1 1 0 001.414-1.414L11.414 10l6.293-6.293a1 1 0 00-1.414-1.414L10 8.586 3.707 2.293a1 1 0 10-1.414 1.414L8.586 10l-6.293 6.293z"/></svg><svg viewBox="0 0 12 12" id="tooltip-input" xmlns="http://www.w3.org/2000/svg"><path d="M6 12c-3.308 0-6-2.692-6-6s2.692-6 6-6 6 2.692 6 6-2.692 6-6 6zm0-.9c2.822 0 5.1-2.278 5.1-5.1C11.1 3.178 8.822.9 6 .9A5.093 5.093 0 00.9 6c0 2.822 2.278 5.1 5.1 5.1zM6 9a.6.6 0 110-1.2A.6.6 0 016 9zm-.007-2.094a.45.45 0 01-.443-.456v-3.3a.452.452 0 01.677-.395c.14.082.225.233.223.395v3.3a.449.449 0 01-.457.456z"/></svg><svg viewBox="0 0 25 25" id="user" xmlns="http://www.w3.org/2000/svg"><path opacity=".4" d="M12.5 12.5a5.208 5.208 0 100-10.417 5.208 5.208 0 000 10.417z"/><path d="M12.5 15.104c-5.219 0-9.469 3.5-9.469 7.813 0 .291.23.52.521.52h17.896c.292 0 .52-.229.52-.52 0-4.313-4.25-7.813-9.468-7.813z"/></svg></svg>