<svg width="10" height="10" viewBox="0 0 10 10" fill="none" xmlns="http://www.w3.org/2000/svg">
<path d="M0.999943 5.79158L1.73012 5.6203L0.999943 5.79158ZM0.999943 3.36622L1.73012 3.5375L0.999943 3.36622ZM7.8771 3.36622L8.60728 3.19495L7.8771 3.36622ZM7.8771 5.79158L7.14691 5.6203L7.8771 5.79158ZM5.6512 8.01748L5.47992 7.2873L5.6512 8.01748ZM3.22584 8.01748L3.39712 7.2873L3.22584 8.01748ZM3.22584 1.14032L3.05456 0.410143L3.22584 1.14032ZM5.6512 1.14032L5.82247 0.410142L5.6512 1.14032ZM8.32929 9.53033C8.62218 9.82322 9.09706 9.82322 9.38995 9.53033C9.68284 9.23744 9.68284 8.76256 9.38995 8.46967L8.32929 9.53033ZM1.73012 5.6203C1.56945 4.93533 1.56945 4.22247 1.73012 3.5375L0.269762 3.19494C0.0562382 4.10523 0.0562382 5.05257 0.269762 5.96286L1.73012 5.6203ZM7.14691 3.5375C7.30759 4.22247 7.30759 4.93533 7.14691 5.6203L8.60728 5.96285C8.8208 5.05257 8.8208 4.10523 8.60728 3.19495L7.14691 3.5375ZM5.47992 7.2873C4.79495 7.44797 4.08209 7.44797 3.39712 7.2873L3.05457 8.74766C3.96485 8.96118 4.91219 8.96118 5.82247 8.74766L5.47992 7.2873ZM3.39712 1.8705C4.08209 1.70983 4.79495 1.70983 5.47992 1.8705L5.82247 0.410142C4.91219 0.196619 3.96485 0.196619 3.05456 0.410143L3.39712 1.8705ZM3.39712 7.2873C2.56998 7.09328 1.92414 6.44744 1.73012 5.6203L0.269762 5.96286C0.593884 7.34464 1.67279 8.42354 3.05457 8.74766L3.39712 7.2873ZM5.82247 8.74766C7.20425 8.42354 8.28316 7.34463 8.60728 5.96285L7.14691 5.6203C6.95289 6.44744 6.30706 7.09328 5.47992 7.2873L5.82247 8.74766ZM5.47992 1.8705C6.30706 2.06452 6.95289 2.71036 7.14691 3.5375L8.60728 3.19495C8.28316 1.81317 7.20425 0.734264 5.82247 0.410142L5.47992 1.8705ZM3.05456 0.410143C1.67279 0.734264 0.593884 1.81317 0.269762 3.19494L1.73012 3.5375C1.92414 2.71036 2.56998 2.06452 3.39712 1.8705L3.05456 0.410143ZM6.70046 7.9015L8.32929 9.53033L9.38995 8.46967L7.76112 6.84084L6.70046 7.9015Z" fill="black" fill-opacity="0.63"/>
</svg>
