<svg width="12" height="12" viewBox="0 0 12 12" fill="none" xmlns="http://www.w3.org/2000/svg">
<path d="M6 12C2.6918 12 0 9.3082 0 6C0 2.6918 2.6918 -4.76837e-07 6 -4.76837e-07C9.3082 -4.76837e-07 12 2.6918 12 6C12 9.3082 9.3082 12 6 12ZM6 11.1C8.82188 11.1 11.1 8.82187 11.1 6C11.1 3.17812 8.82188 0.9 6 0.9C3.17813 0.9 0.9 3.17812 0.9 6C0.9 8.82187 3.17813 11.1 6 11.1ZM6 9C5.66836 9 5.4 8.73164 5.4 8.4C5.4 8.06836 5.66836 7.8 6 7.8C6.33164 7.8 6.6 8.06836 6.6 8.4C6.6 8.73164 6.33164 9 6 9ZM5.99297 6.90586C5.74453 6.90234 5.54648 6.69844 5.55 6.45V3.15C5.54766 2.98828 5.6332 2.83711 5.77266 2.75508C5.91328 2.67305 6.08672 2.67305 6.22734 2.75508C6.3668 2.83711 6.45234 2.98828 6.45 3.15V6.45C6.45117 6.57187 6.4043 6.68906 6.31758 6.77461C6.23203 6.86133 6.11484 6.9082 5.99297 6.90586Z" fill="#2461FF"/>
</svg>
