<?xml version="1.0" encoding="utf-8"?><svg viewBox="0 0 24 24" xmlns="http://www.w3.org/2000/svg" xmlns:xlink="http://www.w3.org/1999/xlink"><style>:root>svg{display:none}:root>svg:target{display:block}</style><svg viewBox="0 0 24 24" id="account-user-logo" xmlns="http://www.w3.org/2000/svg"><path opacity=".4" d="M12 12a5 5 0 100-10 5 5 0 000 10z"/><path d="M12 14.5c-5.01 0-9.09 3.36-9.09 7.5 0 .28.22.5.5.5h17.18c.28 0 .5-.22.5-.5 0-4.14-4.08-7.5-9.09-7.5z"/></svg><svg viewBox="0 0 8 6" id="arrow-down-select" xmlns="http://www.w3.org/2000/svg"><g filter="url(#ba)"><path d="M4 6L0 0h8L4 6z"/></g><defs><filter id="ba" x="0" y="0" width="8" height="10" filterUnits="userSpaceOnUse" color-interpolation-filters="sRGB"><feFlood flood-opacity="0" result="BackgroundImageFix"/><feBlend in="SourceGraphic" in2="BackgroundImageFix" result="shape"/><feColorMatrix in="SourceAlpha" values="0 0 0 0 0 0 0 0 0 0 0 0 0 0 0 0 0 0 127 0" result="hardAlpha"/><feOffset dy="4"/><feGaussianBlur stdDeviation="2"/><feComposite in2="hardAlpha" operator="arithmetic" k2="-1" k3="1"/><feColorMatrix values="0 0 0 0 0 0 0 0 0 0 0 0 0 0 0 0 0 0 0.25 0"/><feBlend in2="shape" result="effect1_innerShadow_134_981"/></filter></defs></svg><svg viewBox="0 0 10 10" id="search" xmlns="http://www.w3.org/2000/svg"><path d="M1 5.792l.73-.172-.73.172zm0-2.426l.73.171-.73-.17zm6.877 0l.73-.171-.73.171zm0 2.426l-.73-.172.73.172zM5.651 8.017l-.171-.73.171.73zm-2.425 0l.171-.73-.171.73zm0-6.877L3.055.41l.17.73zm2.425 0l.171-.73-.17.73zM8.33 9.53a.75.75 0 001.06-1.06L8.33 9.53zm-6.6-3.91a4.56 4.56 0 010-2.083L.27 3.196a6.06 6.06 0 000 2.768l1.46-.343zm5.417-2.083a4.56 4.56 0 010 2.083l1.46.343a6.06 6.06 0 000-2.768l-1.46.343zM5.48 7.287a4.56 4.56 0 01-2.083 0l-.342 1.46a6.06 6.06 0 002.767 0l-.342-1.46zM3.397 1.87a4.56 4.56 0 012.083 0L5.822.41a6.06 6.06 0 00-2.767 0l.342 1.46zm0 5.417A2.237 2.237 0 011.73 5.62l-1.46.343a3.737 3.737 0 002.785 2.785l.342-1.46zm2.425 1.46a3.737 3.737 0 002.785-2.784l-1.46-.343A2.237 2.237 0 015.48 7.287l.342 1.46zM5.48 1.87c.827.195 1.473.84 1.667 1.667l1.46-.342A3.737 3.737 0 005.822.41L5.48 1.87zM3.055.41A3.737 3.737 0 00.27 3.195l1.46.343A2.237 2.237 0 013.397 1.87L3.055.41zM6.7 7.902L8.33 9.53l1.06-1.06-1.629-1.63-1.06 1.062z" fill-opacity=".63"/></svg></svg>